<svg xmlns="http://www.w3.org/2000/svg" width="24.758" height="29.433" viewBox="0 0 24.758 29.433">
  <g id="Group_53682" data-name="Group 53682" transform="translate(0 0)" opacity="0.9">
    <path id="Path_1066" data-name="Path 1066" d="M81.758,2170.357q0,5.862,0,11.724a2.819,2.819,0,0,1-2.383,2.867,4.306,4.306,0,0,1-.9.089q-9.138.008-18.276,0a2.948,2.948,0,0,1-3.183-2.828c-.013-2.239-.005-4.478-.005-6.717q0-7.267-.009-14.534a1.158,1.158,0,0,1,.457-.984c1.624-1.379,3.214-2.787,4.827-4.175a.868.868,0,0,1,.51-.184q7.858-.015,15.715-.008a2.952,2.952,0,0,1,3.243,2.869c.009,3.44,0,6.88,0,10.32v1.558Zm-23.37-10v.412q0,6.9,0,13.8,0,3.772,0,7.543a1.545,1.545,0,0,0,.679,1.375,2.042,2.042,0,0,0,1.205.34c6.034,0,12.069-.017,18.1.011a1.808,1.808,0,0,0,2.017-1.769c-.043-1.679-.01-3.358-.01-5.038q0-9.267,0-18.535c0-1.054-.734-1.679-1.953-1.68H62.488v3.541Z" transform="translate(-57 -2155.609)" fill="#fff"/>
    <path id="Path_1067" data-name="Path 1067" d="M73.288,2169.879h5.274a5.119,5.119,0,0,1-2.484,4.513,5.363,5.363,0,0,1-7.757-6.633,5.319,5.319,0,0,1,4.967-3.275v5.4Z" transform="translate(-61.32 -2159.124)" fill="#fff"/>
    <path id="Path_1068" data-name="Path 1068" d="M84.942,2186.767q0-2.289,0-4.578a1.693,1.693,0,0,1,.017-.341c.044-.211.168-.34.508-.333q1.315.023,2.63,0c.328-.006.478.1.523.321a1.694,1.694,0,0,1,.03.34q0,4.6,0,9.208a1.612,1.612,0,0,1-.026.314c-.046.231-.2.345-.544.339-.842-.015-1.684,0-2.525-.005-.468,0-.6-.087-.608-.45-.013-.464-.007-.929-.007-1.394q0-1.71,0-3.42Z" transform="translate(-68.068 -2165.871)" fill="#fff"/>
    <path id="Path_1069" data-name="Path 1069" d="M78.121,2189.633c0,1.166,0,2.332,0,3.5,0,.475-.075.528-.7.528q-1.226,0-2.454,0c-.393,0-.527-.086-.545-.385s-.008-.614-.008-.92q0-3.09,0-6.179c0-.1-.021-.23.046-.308a.643.643,0,0,1,.386-.234c.946-.02,1.892-.008,2.839-.012.262,0,.389.1.418.281a2.451,2.451,0,0,1,.021.394q0,1.67,0,3.339Z" transform="translate(-63.895 -2167.497)" fill="#fff"/>
    <path id="Path_1070" data-name="Path 1070" d="M63.911,2192.778c0-.762,0-1.525,0-2.287,0-.312.075-.37.492-.371q1.35,0,2.7,0c.44,0,.519.059.519.38q0,2.275,0,4.549c0,.314-.1.389-.514.39-.911,0-1.823,0-2.734,0-.321,0-.467-.1-.465-.348.009-.771,0-1.542,0-2.314Z" transform="translate(-59.737 -2169.279)" fill="#fff"/>
    <path id="Path_1071" data-name="Path 1071" d="M83.579,2168.446H78.324v-5.325A5.219,5.219,0,0,1,83.579,2168.446Z" transform="translate(-65.447 -2158.579)" fill="#fff"/>
  </g>
</svg>
