<svg xmlns="http://www.w3.org/2000/svg" width="25.52" height="25.215" viewBox="0 0 25.52 25.215">
  <g id="Group_53669" data-name="Group 53669" transform="translate(0 0.001)" opacity="0.9">
    <path id="Path_1054" data-name="Path 1054" d="M56.642,1620.877a9.2,9.2,0,0,1,.318-1.062,3.463,3.463,0,0,1,2.22-2,.359.359,0,0,1,.284.053,3.1,3.1,0,0,0,3.992,0,.384.384,0,0,1,.306-.043,3.517,3.517,0,0,1,2.257,2.126c.028.068.058.136.1.228a18.363,18.363,0,0,1,6.527-.005c.194-.352.354-.7.566-1.011a3.456,3.456,0,0,1,1.806-1.34.328.328,0,0,1,.358.059,3.061,3.061,0,0,0,3.941-.006.3.3,0,0,1,.336-.054,3.609,3.609,0,0,1,2.505,3.493c0,.864-.008,1.728.007,2.591a.349.349,0,0,1-.272.4c-.473.151-.944.307-1.417.459-.086.028-.174.047-.265.073.088.305.193.594.252.892a4.328,4.328,0,0,1-1.08,3.761,8.922,8.922,0,0,1-3.52,2.452c-.626.26-1.274.467-1.926.7,0-.007-.012.01-.009.023a13.013,13.013,0,0,1,.167,3.1c0,.125,0,.249,0,.374,0,.622,0,.626-.6.846a11.5,11.5,0,0,1-4.457.625,16.913,16.913,0,0,1-4.42-.794c-.047-.014-.091-.037-.167-.069a22.96,22.96,0,0,1,.205-4.186c-.17-.054-.356-.111-.541-.173a10.537,10.537,0,0,1-4.387-2.553,4.757,4.757,0,0,1-1.469-3.1,3.98,3.98,0,0,1,.269-1.657c.038-.1.073-.2.11-.3l-1.995-.563Zm9.627.052c0,.994-.009,1.964.007,2.934a.415.415,0,0,1-.3.458,10.632,10.632,0,0,1-4.334.746c-.653-.012-1.306-.1-1.96-.144-.114-.008-.235-.065-.313.1a3.424,3.424,0,0,0-.306,2.012,4.5,4.5,0,0,0,1.725,2.767,10.719,10.719,0,0,0,4.025,2,.263.263,0,0,0,.346-.12A3.476,3.476,0,0,1,67,1630.354a.356.356,0,0,1,.282.052,3.1,3.1,0,0,0,3.99.01.38.38,0,0,1,.3-.059,3.472,3.472,0,0,1,1.865,1.378c.1.14.181.184.344.125.731-.266,1.485-.48,2.194-.793a7.18,7.18,0,0,0,3.03-2.318,3.508,3.508,0,0,0,.466-3.618.2.2,0,0,0-.26-.146,6.847,6.847,0,0,1-.718.073,16.535,16.535,0,0,1-5.767-.763.241.241,0,0,1-.2-.278c.007-.913,0-1.827,0-2.74v-.346A18.305,18.305,0,0,0,66.269,1620.929Z" transform="translate(-56.642 -1612.405)" fill="#fff"/>
    <path id="Path_1055" data-name="Path 1055" d="M65.514,1611.884a2.821,2.821,0,1,1-2.811-2.825A2.811,2.811,0,0,1,65.514,1611.884Z" transform="translate(-57.879 -1609.06)" fill="#fff"/>
    <path id="Path_1056" data-name="Path 1056" d="M88.445,1614.7a2.821,2.821,0,1,1,2.815-2.821A2.809,2.809,0,0,1,88.445,1614.7Z" transform="translate(-67.739 -1609.06)" fill="#fff"/>
    <path id="Path_1057" data-name="Path 1057" d="M75.368,1629.388a2.822,2.822,0,1,1-2.816,2.82A2.81,2.81,0,0,1,75.368,1629.388Z" transform="translate(-62.735 -1616.845)" fill="#fff"/>
  </g>
</svg>
