<svg id="power" xmlns="http://www.w3.org/2000/svg" width="26.606" height="29.025" viewBox="0 0 26.606 29.025">
  <g id="Group_19" data-name="Group 19" transform="translate(0 0)">
    <g id="Group_18" data-name="Group 18" transform="translate(0 0)">
      <path id="Path_81" data-name="Path 81" d="M38.954,59.506a1.216,1.216,0,0,0-1.592.615,1.185,1.185,0,0,0,.624,1.569,10.884,10.884,0,1,1-8.706,0,1.185,1.185,0,0,0,.624-1.569,1.216,1.216,0,0,0-1.593-.614A13.158,13.158,0,1,0,46.937,71.524,13.106,13.106,0,0,0,38.954,59.506Z" transform="translate(-20.331 -55.608)" fill="#fff"/>
      <path id="Path_82" data-name="Path 82" d="M235,13.755a1.341,1.341,0,0,0,1.341-1.341V.341a1.341,1.341,0,1,0-2.683,0V12.414A1.341,1.341,0,0,0,235,13.755Z" transform="translate(-221.695 1)" fill="#fff"/>
    </g>
  </g>
</svg>
