<svg xmlns="http://www.w3.org/2000/svg" width="30.441" height="29.371" viewBox="0 0 30.441 29.371">
  <g id="Group_53671" data-name="Group 53671" transform="translate(-886.065 19.293)">
    <path id="Path_11786" data-name="Path 11786" d="M904.474,249.286h-15.5a2.77,2.77,0,0,1-2.9-2.869q-.016-5.439,0-10.878a2.767,2.767,0,0,1,2.314-2.82,3.188,3.188,0,0,1,.566-.036q9.567,0,19.135,0a2.748,2.748,0,0,1,2.673,1.683c.035.072.055.151.09.25-.1,0-.182,0-.26,0-.5-.008-1-.013-1.505-.026a1.157,1.157,0,0,1-.254-.051,3.213,3.213,0,0,0-.75-.191q-9.543-.016-19.085-.008a1.134,1.134,0,0,0-1.255,1.253c0,.312,0,.623,0,.964h16.594a2.11,2.11,0,0,1-.137.161,8.113,8.113,0,0,0-2.369,3.782c-.061.21-.176.211-.341.211q-6.7,0-13.4,0h-.348v.284q0,2.695,0,5.389a1.129,1.129,0,0,0,1.239,1.244q6.836,0,13.671-.005a.629.629,0,0,1,.554.261C903.6,248.361,904.038,248.809,904.474,249.286Z" transform="translate(0 -239.515)" fill="#e6e6e8"/>
    <path id="Path_11787" data-name="Path 11787" d="M982.744-11.062h-.278c-1.186,0-2.372.005-3.559,0-.211,0-.263.066-.26.267.011.667,0,1.334,0,2v.283h-8.295v-2.544h-4.078l8.234-8.234Z" transform="translate(-76.248)" fill="#e6e6e8"/>
    <path id="Path_11788" data-name="Path 11788" d="M1242.4,308.66a6.745,6.745,0,1,1-6.71-6.754A6.754,6.754,0,0,1,1242.4,308.66Zm-1.248-.014a5.5,5.5,0,1,0-5.505,5.5A5.507,5.507,0,0,0,1241.157,308.646Z" transform="translate(-325.898 -305.317)" fill="#e6e6e8"/>
    <path id="Path_11789" data-name="Path 11789" d="M1297.769,344.825v-.33c0-1.17,0-2.34,0-3.509a1.09,1.09,0,0,1,.05-.363.623.623,0,0,1,1.2.188c.016.37.008.741.009,1.112q0,1.705,0,3.41c0,.534-.235.766-.769.766-.964,0-1.928,0-2.892,0a.625.625,0,0,1-.664-.618.632.632,0,0,1,.631-.653c.066,0,.132,0,.2,0h2.235Z" transform="translate(-388.434 -341.747)" fill="#e6e6e8"/>
  </g>
</svg>
