<svg xmlns="http://www.w3.org/2000/svg" width="26.606" height="26.606" viewBox="0 0 26.606 26.606">
  <g id="settings_1_" data-name="settings (1)" transform="translate(0 -14)">
    <g id="Group_15" data-name="Group 15" transform="translate(0 14)">
      <g id="Group_14" data-name="Group 14">
        <path id="Path_76" data-name="Path 76" d="M23.714,8.977h-3.2l2.329-2.333a1.848,1.848,0,0,0,0-2.614l-2.2-2.2a1.945,1.945,0,0,0-2.75,0L15.629,4.087V.892A1.893,1.893,0,0,0,13.737-1H10.87A1.893,1.893,0,0,0,8.977.892v3.2L6.711,1.828a1.945,1.945,0,0,0-2.747,0l-2.2,2.2a1.847,1.847,0,0,0,0,2.611L4.088,8.977H.892A1.893,1.893,0,0,0-1,10.87v2.867A1.893,1.893,0,0,0,.892,15.629h3.2L1.827,17.894a1.945,1.945,0,0,0,0,2.748l2.134,2.135a1.945,1.945,0,0,0,2.75,0l2.265-2.259v3.2a1.893,1.893,0,0,0,1.892,1.892h2.867a1.893,1.893,0,0,0,1.892-1.892v-3.2l2.266,2.26a1.945,1.945,0,0,0,2.747,0l2.136-2.137a1.944,1.944,0,0,0,0-2.747l-2.262-2.266h3.2a1.893,1.893,0,0,0,1.892-1.892V10.87A1.893,1.893,0,0,0,23.714,8.977Zm-.325,4.434H19.8a1.918,1.918,0,0,0-1.358,3.273l2.577,2.583-1.749,1.749L16.64,18.4a1.892,1.892,0,0,0-3.228,1.339v3.654H11.195V19.735A1.892,1.892,0,0,0,7.965,18.4l-2.627,2.62L3.59,19.267l2.577-2.582a1.918,1.918,0,0,0-1.358-3.273H1.217V11.194H4.809A1.918,1.918,0,0,0,6.167,7.922L3.59,5.339,5.338,3.59,7.966,6.21a1.892,1.892,0,0,0,3.228-1.339V1.217h2.217V4.871a1.892,1.892,0,0,0,3.229,1.338l2.627-2.62,1.749,1.75L18.439,7.921A1.918,1.918,0,0,0,19.8,11.195h3.592v2.217Z" transform="translate(1 1)" fill="#fff"/>
        <path id="Path_77" data-name="Path 77" d="M171.884,169.667a2.217,2.217,0,1,0,2.217,2.217A2.217,2.217,0,0,0,171.884,169.667Zm0,3.326a1.109,1.109,0,1,1,1.109-1.109A1.109,1.109,0,0,1,171.884,172.993Z" transform="translate(-158.581 -158.581)" fill="none" stroke="#d1d2d6" stroke-width="1"/>
      </g>
    </g>
  </g>
</svg>
