<svg id="Group_53672" data-name="Group 53672" xmlns="http://www.w3.org/2000/svg" width="27.105" height="21.459" viewBox="0 0 27.105 21.459">
  <g id="Group_41068" data-name="Group 41068" transform="translate(0 0)">
    <path id="Path_4641" data-name="Path 4641" d="M568.944,295.106c.122-1.151.251-2.235.35-3.321a2.057,2.057,0,0,1,2.418-2.1q6.908.561,13.813,1.149c1.687.141,3.376.262,5.06.431a1.975,1.975,0,0,1,1.886,2.238c-.167,2.269-.373,4.534-.563,6.8-.125,1.494-.271,2.986-.371,4.481-.121,1.812-.832,2.469-2.66,2.4-.069,0-.138.008-.28.016,0,.582,0,1.158,0,1.733a2.014,2.014,0,0,1-2.21,2.2q-9.4.007-18.79,0a2.033,2.033,0,0,1-2.221-2.246q0-5.769,0-11.539a2.064,2.064,0,0,1,2.243-2.237C568.041,295.1,568.463,295.106,568.944,295.106Zm-2.507,7.476v.5q0,2.886,0,5.771c0,.88.33,1.213,1.216,1.213q9.345,0,18.689,0c.862,0,1.19-.325,1.192-1.176q.008-2.912,0-5.824c0-.154-.019-.307-.03-.484Zm22.161,3.48c1.49.224,1.779-.021,1.882-1.417.141-1.9.317-3.8.476-5.692.153-1.81.311-3.619.454-5.429a1,1,0,0,0-.991-1.22c-.209-.03-.421-.044-.632-.061q-2.82-.232-5.641-.464c-4.023-.337-8.048-.662-12.069-1.024-1.344-.121-1.752.214-1.755,1.487a2.077,2.077,0,0,1-.031.209c-.09.868-.179,1.737-.273,2.654h.7q7.778,0,15.557,0a2.068,2.068,0,0,1,2.324,2.308q.006,4,0,7.991Zm-1.1-4.6v-2.116H566.478v2.116Zm-.03-3.243c.229-1.572-.033-2.076-1.605-2.065-5.994.04-11.988.016-17.983.016a5.057,5.057,0,0,0-.529.009.955.955,0,0,0-.9.88c-.03.379-.006.762-.006,1.16Z" transform="translate(-565.375 -289.673)" fill="#e6e6e8"/>
    <path id="Path_4642" data-name="Path 4642" d="M703.731,426.074c.757,0,1.514-.006,2.271,0,.561.006.727.167.733.723q.014,1.479,0,2.958c-.005.552-.172.716-.739.719q-2.324.011-4.648,0c-.588,0-.764-.176-.769-.751q-.012-1.452,0-2.9c.005-.571.185-.739.775-.744C702.147,426.069,702.939,426.074,703.731,426.074Zm-2.06,3.3h3.972v-2.2h-3.972Z" transform="translate(-686.257 -411.628)" fill="#e6e6e8"/>
  </g>
</svg>
