<svg xmlns="http://www.w3.org/2000/svg" width="70.171" height="54.813" viewBox="0 0 70.171 54.813">
  <g id="Group_3340" data-name="Group 3340" transform="translate(-2742.459 -527.113)">
    <path id="Path_4569" data-name="Path 4569" d="M2748.37,532.993v32.132c2.495.428,2.518.418,3.738-1.483q4.689-7.31,9.381-14.616c.216-.336.445-.664.749-1.115.3.441.559.789.792,1.152,3.063,4.768,6.236,9.47,9.127,14.34,1.1,1.848,2.378,2.155,4.383,1.718-.747-1.17-1.456-2.282-2.167-3.393-.879-1.374-1.775-2.737-2.624-4.129-.162-.266-.306-.744-.178-.956,1-1.667,2.067-3.292,3.2-5.071,1.51,2.347,2.915,4.529,4.318,6.713,1.234,1.92,2.523,3.809,3.674,5.778a2.02,2.02,0,0,0,2.233,1.225,16.2,16.2,0,0,1,2.074-.016v12.207h8.112v3.053h-49.441c-2.476,0-3.286-.817-3.286-3.31q0-23.379,0-46.757c0-2.571.784-3.351,3.365-3.351h53.367c2.668,0,3.431.763,3.43,3.409q0,12.24,0,24.48v1.317h-5.878V532.993Z" fill="#cecece" opacity="0.7"/>
    <path id="Path_4570" data-name="Path 4570" d="M2804.544,568.179h8.086v5.677H2804.6v8.07h-5.727V573.9h-8.1V568.19h8.068v-8.114h5.706Z" fill="#cecece" opacity="0.7"/>
    <path id="Path_4571" data-name="Path 4571" d="M2792.431,543.7a5.169,5.169,0,1,1-5.156-5.1A5.2,5.2,0,0,1,2792.431,543.7Z" fill="#cecece"/>
  </g>
</svg>
