<svg id="diskette" xmlns="http://www.w3.org/2000/svg" width="32.914" height="32.914" viewBox="0 0 32.914 32.914">
  <g id="Group_6" data-name="Group 6" transform="translate(0 0)">
    <g id="Group_5" data-name="Group 5" transform="translate(0 0)">
      <path id="Path_64" data-name="Path 64" d="M31.514,6.259,24.656-.6a1.372,1.372,0,0,0-.97-.4H.372A1.371,1.371,0,0,0-1,.371V30.543A1.371,1.371,0,0,0,.372,31.914H30.544a1.371,1.371,0,0,0,1.371-1.371V7.229A1.371,1.371,0,0,0,31.514,6.259ZM20.944,1.743V8.6H9.972V1.743Zm1.371,27.428H8.6v-9.6H22.315v9.6Zm6.857,0H25.058V18.2a1.371,1.371,0,0,0-1.371-1.371H7.23A1.371,1.371,0,0,0,5.858,18.2V29.171H1.744V1.743H7.23V9.972A1.371,1.371,0,0,0,8.6,11.343H22.315a1.371,1.371,0,0,0,1.371-1.371V2.311L29.172,7.8V29.171Z" transform="translate(0.999 1)" fill="#fff"/>
    </g>
  </g>
</svg>
