<svg id="edit" xmlns="http://www.w3.org/2000/svg" width="30.171" height="30.172" viewBox="0 0 30.171 30.172">
  <g id="Group_25" data-name="Group 25" transform="translate(0 0)">
    <path id="Path_90" data-name="Path 90" d="M29.076,1.1a3.771,3.771,0,0,0-5.333,0l-.153.153H1.266A1.257,1.257,0,0,0,.009,2.514v26.4a1.257,1.257,0,0,0,1.257,1.257h26.4a1.257,1.257,0,0,0,1.257-1.257V6.589l.152-.152A3.771,3.771,0,0,0,29.076,1.1ZM27.3,2.882a1.257,1.257,0,0,1,0,1.777L17.657,14.3l-2.41,2.41a7.345,7.345,0,0,1-3.775,2.01,7.328,7.328,0,0,1,2.016-3.806L25.52,2.882A1.257,1.257,0,0,1,27.3,2.882ZM26.41,9.1V27.657H2.523V3.771H21.075L11.71,13.137A9.843,9.843,0,0,0,8.847,19.47l-.014.218-.022.345a1.257,1.257,0,0,0,1.255,1.338,9.842,9.842,0,0,0,6.959-2.883l2.417-2.417Z" transform="translate(-0.009 0.001)" fill="#fff"/>
  </g>
</svg>
