<svg xmlns="http://www.w3.org/2000/svg" width="15.34" height="15.34" viewBox="0 0 15.34 15.34">
  <path id="Path_4495" data-name="Path 4495" d="M4232.652,876.508V871.9a1.531,1.531,0,0,1,1.531-1.531h0a1.532,1.532,0,0,1,1.531,1.531v4.6h4.609a1.531,1.531,0,0,1,1.531,1.531v.005a1.531,1.531,0,0,1-1.531,1.531h-4.6v4.609a1.531,1.531,0,0,1-1.531,1.531h0a1.531,1.531,0,0,1-1.531-1.531v-4.6h-4.609a1.531,1.531,0,0,1-1.531-1.531v-.006a1.531,1.531,0,0,1,1.531-1.531Z" transform="translate(-4226.514 -870.368)" fill="#fff"/>
</svg>
