<svg xmlns="http://www.w3.org/2000/svg" width="28.23" height="28.222" viewBox="0 0 28.23 28.222">
  <path id="Path_69" data-name="Path 69" d="M27.457,13.846a2.56,2.56,0,0,0-1.422-4.364l-6.7-.714a.218.218,0,0,1-.11-.107L16.382,1.571a2.464,2.464,0,0,0-4.5-.082L8.972,8.743c.007-.021-.052.021-.121.031l-6.614.7A2.564,2.564,0,0,0,.773,13.849l4.864,4.8a.214.214,0,0,1,.064.191L4.595,25.294a2.56,2.56,0,0,0,3.715,2.7q5.8-3.05,5.815-3.046l5.795,3.047a2.561,2.561,0,0,0,3.716-2.7l-1.108-6.456a.208.208,0,0,1,.061-.184Zm-7.25,5.389,1.108,6.457a.208.208,0,0,1-.3.218l-5.8-3.047a2.552,2.552,0,0,0-1.023-.281h-.159a2.539,2.539,0,0,0-1.024.281l-5.8,3.047a.207.207,0,0,1-.3-.218L8.02,19.236a2.565,2.565,0,0,0-.734-2.265l-4.865-4.8a.209.209,0,0,1,.11-.359l6.615-.7A2.58,2.58,0,0,0,11.118,9.7L14.03,2.446c0,.012.053-.022.14-.026-.025,0,.031.038.066.11l2.837,7.088A2.59,2.59,0,0,0,19.036,11.1l6.706.714a.21.21,0,0,1,.065.354l-4.867,4.8A2.558,2.558,0,0,0,20.207,19.235Z" transform="translate(0 -0.07)" fill="#fff"/>
</svg>
